<?xml version="1.0" encoding="UTF-8" standalone="no"?>
<!-- Created with Inkscape (http://www.inkscape.org/) -->

<svg
   xmlns:osb="http://www.openswatchbook.org/uri/2009/osb"
   xmlns:dc="http://purl.org/dc/elements/1.1/"
   xmlns:cc="http://creativecommons.org/ns#"
   xmlns:rdf="http://www.w3.org/1999/02/22-rdf-syntax-ns#"
   xmlns:svg="http://www.w3.org/2000/svg"
   xmlns="http://www.w3.org/2000/svg"
   xmlns:xlink="http://www.w3.org/1999/xlink"
   xmlns:sodipodi="http://sodipodi.sourceforge.net/DTD/sodipodi-0.dtd"
   xmlns:inkscape="http://www.inkscape.org/namespaces/inkscape"
   width="383"
   height="383"
   id="svg2"
   version="1.1"
   inkscape:version="0.48.2 r9819"
   sodipodi:docname="j3.svg"
   inkscape:export-filename="/home/x3mboy/j3.png"
   inkscape:export-xdpi="90"
   inkscape:export-ydpi="90">
  <defs
     id="defs4">
    <linearGradient
       inkscape:collect="always"
       id="linearGradient4271">
      <stop
         style="stop-color:#ff0000;stop-opacity:1"
         offset="0"
         id="stop4273" />
      <stop
         style="stop-color:#0000ff;stop-opacity:0;"
         offset="1"
         id="stop4275" />
    </linearGradient>
    <linearGradient
       id="linearGradient4255">
      <stop
         style="stop-color:#ff0000;stop-opacity:0;"
         offset="0"
         id="stop4257" />
      <stop
         id="stop4263"
         offset="1"
         style="stop-color:#ff0000;stop-opacity:0.9878788;" />
      <stop
         style="stop-color:#ff0000;stop-opacity:1"
         offset="1"
         id="stop4259" />
    </linearGradient>
    <linearGradient
       inkscape:collect="always"
       id="linearGradient4099">
      <stop
         style="stop-color:#ff0000;stop-opacity:1"
         offset="0"
         id="stop4101" />
      <stop
         style="stop-color:#ff0000;stop-opacity:0.19583334"
         offset="1"
         id="stop4103" />
    </linearGradient>
    <linearGradient
       inkscape:collect="always"
       id="linearGradient3985">
      <stop
         style="stop-color:#ffffff;stop-opacity:1;"
         offset="0"
         id="stop3987" />
      <stop
         style="stop-color:#ffffff;stop-opacity:0;"
         offset="1"
         id="stop3989" />
    </linearGradient>
    <linearGradient
       inkscape:collect="always"
       id="linearGradient3953"
       osb:paint="gradient">
      <stop
         style="stop-color:#000000;stop-opacity:1;"
         offset="0"
         id="stop3955" />
      <stop
         style="stop-color:#000000;stop-opacity:0;"
         offset="1"
         id="stop3957" />
    </linearGradient>
    <linearGradient
       inkscape:collect="always"
       xlink:href="#linearGradient3985"
       id="linearGradient3991"
       x1="400"
       y1="400.93362"
       x2="394.28571"
       y2="709.505"
       gradientUnits="userSpaceOnUse" />
    <linearGradient
       inkscape:collect="always"
       xlink:href="#linearGradient4099"
       id="linearGradient4114"
       gradientUnits="userSpaceOnUse"
       gradientTransform="matrix(0.97835171,0,0,1,4.3955156,0)"
       x1="125.71429"
       y1="265.93362"
       x2="190.71428"
       y2="201.64789" />
    <linearGradient
       inkscape:collect="always"
       xlink:href="#linearGradient4271"
       id="linearGradient4296"
       gradientUnits="userSpaceOnUse"
       gradientTransform="matrix(1,0,0,1.0611396,0,-36.584498)"
       x1="387.85715"
       y1="660.93365"
       x2="629.28571"
       y2="484.50507" />
  </defs>
  <sodipodi:namedview
     id="base"
     pagecolor="#ffffff"
     bordercolor="#666666"
     borderopacity="1.0"
     inkscape:pageopacity="0"
     inkscape:pageshadow="2"
     inkscape:zoom="0.49497475"
     inkscape:cx="52.029461"
     inkscape:cy="22.070801"
     inkscape:document-units="px"
     inkscape:current-layer="layer1"
     showgrid="false"
     inkscape:snap-bbox="true"
     inkscape:snap-bbox-midpoints="true"
     inkscape:snap-bbox-edge-midpoints="true"
     inkscape:snap-global="false"
     showguides="true"
     inkscape:guide-bbox="true"
     inkscape:window-width="1366"
     inkscape:window-height="715"
     inkscape:window-x="0"
     inkscape:window-y="25"
     inkscape:window-maximized="1" />
  <metadata
     id="metadata7">
    <rdf:RDF>
      <cc:Work
         rdf:about="">
        <dc:format>image/svg+xml</dc:format>
        <dc:type
           rdf:resource="http://purl.org/dc/dcmitype/StillImage" />
        <dc:title></dc:title>
      </cc:Work>
    </rdf:RDF>
  </metadata>
  <g
     inkscape:label="Capa 1"
     inkscape:groupmode="layer"
     id="layer1"
     transform="translate(0,-669.36218)"
     style="opacity:1">
    <g
       id="g4302">
      <path
         transform="translate(-208.09142,252.53813)"
         d="m 585.71428,609.50507 c 0,102.56716 -83.14712,185.71428 -185.71428,185.71428 -102.56716,0 -185.71428,-83.14712 -185.71428,-185.71428 0,-102.56717 83.14712,-185.71428 185.71428,-185.71428 102.56716,0 185.71428,83.14711 185.71428,185.71428 z"
         sodipodi:ry="185.71428"
         sodipodi:rx="185.71428"
         sodipodi:cy="609.50507"
         sodipodi:cx="400"
         id="path3949"
         style="fill:#0000ff;stroke:#000080;stroke-width:8;stroke-linecap:butt;stroke-linejoin:round;stroke-miterlimit:4;stroke-opacity:1;stroke-dasharray:none"
         sodipodi:type="arc" />
      <path
         transform="translate(-208.09142,252.53813)"
         d="m 400,431.8125 c -98.18642,0 -177.6875,79.50108 -177.6875,177.6875 0,21.54373 3.97713,42.03491 10.90625,60.96875 A 14.701053,14.701053 0 0 0 245.1875,680 c 32.96402,4.14716 76.63732,-11.63072 134.5625,-75.875 45.58323,-50.55595 87.05524,-69.89207 123,-69.78125 11.53458,0.0356 22.21935,2.20536 32.5,5.75 a 14.701053,14.701053 0 0 0 17.40625,-21.4375 C 521.72619,466.67906 464.99335,431.8125 400,431.8125 z"
         id="path3975"
         style="fill:url(#linearGradient3991);fill-opacity:1;stroke:none"
         inkscape:original="M 400 446.5 C 309.70408 446.5 237 519.20408 237 609.5 C 237 629.23181 240.64831 647.96484 247.03125 665.40625 C 273.99761 668.79885 312.52123 656.74804 368.84375 594.28125 C 416.16981 541.79234 461.51622 519.52903 502.78125 519.65625 C 516.13191 519.69745 528.49449 522.20977 540.03125 526.1875 C 511.65164 478.49627 459.74515 446.5 400 446.5 z "
         inkscape:radius="14.699583"
         sodipodi:type="inkscape:offset" />
      <g
         transform="translate(-61.335034,649.52808)"
         id="g4110">
        <path
           style="fill:#000000"
           d="m 107.98501,276.18148 c -7.49689,-2.43155 -8.40031,-4.72227 -8.20929,-20.81601 0.11794,-9.94609 1.63435,-19.61065 3.36957,-21.47682 1.82641,-1.96425 12.11645,-1.70161 24.43632,0.62375 17.27947,3.26142 22.10679,3.00562 25.67062,-1.36034 2.41406,-2.95741 7.10471,-24.40905 10.42367,-47.67029 3.31896,-23.26125 7.49501,-44.45589 9.28011,-47.09922 4.81643,-7.13201 35.82705,-6.2948 38.29165,1.0338 2.07617,6.17354 -10.07674,90.90514 -16.17385,112.76602 -5.06008,18.14269 -23.97249,27.4242 -55.07786,27.03014 -12.97285,-0.16417 -27.37778,-1.52832 -32.01094,-3.03103 z m 66.80195,-13.45519 c 12.09451,-7.13648 12.94149,-9.55491 20.99295,-59.94277 9.07962,-56.82249 9.00589,-57.67251 -5.00146,-57.67251 -12.81472,0 -11.39936,-4.11374 -22.48826,65.36218 -5.56872,34.89033 -6.58445,35.84742 -35.77428,33.70989 -26.1737,-1.91665 -24.45582,-3.06068 -25.87873,17.23416 -0.76934,10.97296 50.11539,11.95036 68.14978,1.30905 z"
           id="path4059"
           inkscape:connector-curvature="0"
           sodipodi:nodetypes="scssssssscssssssss" />
        <path
           sodipodi:nodetypes="sssssss"
           inkscape:connector-curvature="0"
           id="path4097"
           d="m 175.37889,262.61318 c 12.2756,-7.38089 13.13526,-9.88215 21.30726,-61.99573 9.21557,-58.76859 9.14073,-59.64772 -5.07633,-59.64772 -13.00659,0 -11.57004,-4.25463 -22.82497,67.60076 -5.6521,36.08527 -6.68304,37.07514 -36.30991,34.86441 -26.56558,-1.9823 -24.82198,-3.16551 -26.2662,17.82441 -0.78085,11.34877 50.86574,12.35964 69.17015,1.35387 z"
           style="fill:url(#linearGradient4114);fill-opacity:1" />
      </g>
      <g
         transform="translate(-221.2234,256.57875)"
         id="g4279">
        <path
           style="fill:url(#linearGradient4296);fill-opacity:1"
           d="m 526.96674,665.76605 c 2.63272,-2.07346 5.15745,-6.13085 6.31976,-10.15625 1.06889,-3.70201 5.86299,-40.0915 5.86299,-44.5031 0,-3.83141 -1.17222,-9.95098 -2.95113,-15.40658 -0.59286,-1.81814 -1.0212,-3.39213 -0.95183,-3.49767 0.0703,-0.10569 1.04528,-1.17343 2.16861,-2.37295 2.65816,-2.83817 5.5878,-7.63842 6.0913,-9.98046 0.7913,-3.68078 3.19672,-26.52498 3.19672,-30.35896 0,-9.51132 -3.23274,-15.06534 -10.04079,-17.25052 -2.49251,-0.79998 -10.39444,-0.9005 -58.73732,-0.74703 l -55.85735,0.17735 -3.37925,1.85145 c -2.19923,1.20496 -8.10955,6.05636 -16.92567,13.89318 l -13.54638,12.04172 12.25443,0.16329 12.25442,0.16332 2.37393,-1.86272 2.37391,-1.86263 45.30741,0 c 28.13532,0 45.68979,0.2259 46.31613,0.59608 0.55477,0.32786 1.11368,1.24625 1.24196,2.04095 0.29455,1.82419 -0.75782,12.15989 -1.46718,14.4095 -0.70226,2.22723 -2.2195,3.91542 -4.14173,4.60842 -0.88505,0.31907 -20.50308,0.56855 -45.3624,0.57691 l -43.80295,0.0162 -0.46168,3.55334 c -0.25394,1.95426 -1.04795,7.92472 -1.76447,13.26768 l -1.30286,9.71451 42.78452,0.1904 c 46.88899,0.20869 44.8632,0.0381 47.23656,3.95082 1.7466,2.87866 1.96282,5.40531 1.15503,13.50011 -0.97793,9.80012 -1.57935,12.6732 -3.1471,15.03526 -2.63639,3.97181 -0.6693,3.8201 -49.52299,3.8201 l -44.35245,0 -3.19226,-3.00082 -3.19235,-3.00077 -10.13778,-0.71741 c -5.57583,-0.39457 -11.25596,-0.71269 -12.62259,-0.70696 -2.35795,0.011 -2.48476,0.0849 -2.48476,1.49784 0,1.31396 1.65853,2.92488 14.21284,13.8047 7.81705,6.77449 15.37567,12.94335 16.79692,13.70861 1.42133,0.76528 5.35715,2.17586 8.74635,3.13458 l 6.16221,1.74313 52.08055,-0.0995 52.08047,-0.0995 2.32825,-1.83365 z"
           id="path4249"
           inkscape:connector-curvature="0"
           sodipodi:nodetypes="cssssssssscsscccccsssssscsscssssscccssssssccccc" />
        <path
           style="fill:#000000"
           d="m 409.10308,670.21115 c -4.22094,-1.16883 -8.95715,-2.8216 -10.52493,-3.67281 -2.48155,-1.34735 -28.03935,-21.74145 -32.56146,-25.98274 -1.45268,-1.36246 -1.64452,-1.84342 -1.64452,-4.12296 0,-1.7573 0.22065,-2.70461 0.69161,-2.96934 0.38038,-0.21381 7.11683,0.0675 14.9699,0.62513 l 14.2783,1.01388 2.46199,2.20073 c 1.35409,1.21041 2.89795,2.53193 3.4308,2.9367 1.38634,1.05316 97.9917,1.05066 100.14212,-0.002 1.80987,-0.88648 3.8437,-3.49585 4.4446,-5.70238 0.24053,-0.88328 0.89744,-5.48134 1.45977,-10.21791 0.94869,-7.99064 0.97362,-8.79065 0.34573,-11.08936 -0.84634,-3.09842 -2.33534,-4.66569 -5.31283,-5.5921 -1.63864,-0.50987 -16.01742,-0.72309 -48.7615,-0.72309 -25.54068,0 -46.53242,-0.22476 -46.64832,-0.49947 -0.11596,-0.27471 0.76049,-7.26789 1.94754,-15.54039 1.18705,-8.27252 2.15827,-15.13002 2.15827,-15.2389 0,-0.10885 22.25033,-0.19841 49.44519,-0.19896 46.2012,-6.5e-4 49.54491,-0.0747 50.96515,-1.12417 2.10405,-1.55478 2.93995,-4.04825 3.56477,-10.63367 0.4846,-5.10758 0.46458,-5.76181 -0.20653,-6.74501 -0.68844,-1.00857 -4.39728,-1.10163 -50.32273,-1.26282 l -49.57951,-0.17399 -2.32536,1.94884 -2.32534,1.94885 -15.50483,-0.1689 c -9.96733,-0.1085 -15.50483,-0.3983 -15.50483,-0.81127 0,-0.3533 7.00565,-6.53092 15.5681,-13.72806 12.10394,-10.17388 16.54393,-13.57138 19.95351,-15.26846 l 4.38537,-2.18279 62.57636,0.0105 c 44.72454,0.008 63.24028,0.21736 64.90366,0.73479 7.24704,2.25443 11.32335,9.12003 11.3138,19.05551 -0.005,4.8539 -3.2713,31.65805 -4.16761,34.197 -1.05997,3.00251 -3.5138,6.72179 -5.93839,9.00085 -1.19323,1.12163 -2.16954,2.30788 -2.16954,2.6361 0,0.32822 0.46607,1.96025 1.03571,3.62672 2.73466,8.00028 3.2862,15.83946 1.81765,25.83453 -0.38933,2.64983 -1.59458,11.13329 -2.67831,18.85215 -1.08373,7.71884 -2.2891,15.23472 -2.6786,16.70193 -0.94878,3.57404 -4.15338,9.04975 -6.45016,11.02142 -4.29491,3.68694 -1.29171,3.52009 -62.52802,3.47386 l -56.35217,-0.0425 -7.67441,-2.12515 z m 124.7011,-1.93031 c 2.90411,-2.15545 5.68905,-6.37318 6.97114,-10.55763 1.17908,-3.84833 6.46731,-41.67572 6.46731,-46.26165 0,-3.98274 -1.29306,-10.34423 -3.25534,-16.01539 -0.65396,-1.89 -1.12641,-3.52618 -1.0499,-3.63593 0.0765,-0.10977 1.153,-1.21975 2.39218,-2.46666 2.93207,-2.95036 6.1637,-7.94028 6.71907,-10.37487 0.87284,-3.82618 3.52621,-27.57311 3.52621,-31.5586 0,-9.88718 -3.56594,-15.66063 -11.0757,-17.93215 -2.74942,-0.83163 -11.46581,-0.9361 -64.79142,-0.77657 l -61.61462,0.18435 -3.72757,1.92463 c -2.42594,1.25257 -8.94542,6.29566 -18.67021,14.44219 l -14.94262,12.51754 13.51751,0.16975 13.5175,0.16974 2.61858,-1.9363 2.61861,-1.93629 49.97731,0 c 31.03523,0 50.39904,0.23485 51.08997,0.61966 0.61195,0.34081 1.22845,1.29554 1.36998,2.1216 0.3249,1.89623 -0.83596,12.64043 -1.61841,14.97894 -0.77467,2.31523 -2.4483,4.07014 -4.56864,4.7905 -0.97627,0.33165 -22.61632,0.59102 -50.03795,0.59972 l -48.31776,0.0153 -0.50926,3.6937 c -0.28009,2.03153 -1.15595,8.23794 -1.94635,13.79202 l -1.43711,10.09833 47.19435,0.19794 c 51.72185,0.21694 49.48731,0.0408 52.10526,4.10695 1.92666,2.99242 2.16511,5.61892 1.27409,14.03356 -1.07874,10.18744 -1.74211,13.17402 -3.47151,15.62938 -2.90811,4.12884 -0.73823,3.97109 -54.62733,3.97109 l -48.92393,0 -3.52133,-3.11937 -3.52131,-3.11938 -11.18274,-0.74576 c -6.1505,-0.41016 -12.4161,-0.74088 -13.9236,-0.73491 -2.60096,0.0104 -2.74085,0.0898 -2.74085,1.5571 0,1.36582 1.82949,3.04038 15.67774,14.35016 8.62276,7.04216 16.96047,13.45479 18.52825,14.25029 1.56776,0.79552 5.90929,2.26182 9.64784,3.25843 l 6.79734,1.81202 57.44852,-0.10362 57.44849,-0.10362 2.56821,-1.90613 z"
           id="path4207"
           inkscape:connector-curvature="0"
           sodipodi:nodetypes="cssssscsssssscscssssssscccsssscssssssssssssccccssssssssscsscccccsssssscsscssssscccssssssccccc" />
        <path
           sodipodi:nodetypes="cssssscsssssscscssssssscccsssscssssssssssssccccssssssssscsscccccsssssscsscssssscccssssssccccc"
           inkscape:connector-curvature="0"
           id="path4227"
           d="m 409.92176,669.09267 c -4.15389,-1.15028 -8.81485,-2.77678 -10.35771,-3.61446 -2.44212,-1.32594 -27.59386,-21.39604 -32.0441,-25.56992 -1.4296,-1.34082 -1.61839,-1.81415 -1.61839,-4.05746 0,-1.72937 0.21713,-2.66164 0.68062,-2.92216 0.37432,-0.21041 7.00376,0.0667 14.73206,0.6152 l 14.05143,0.99778 2.42287,2.16575 c 1.33256,1.19119 2.85191,2.49171 3.37631,2.89002 1.3643,1.03644 96.43475,1.03398 98.55099,-0.002 1.78112,-0.8724 3.78264,-3.44032 4.374,-5.61178 0.2367,-0.86926 0.88317,-5.39426 1.43657,-10.05557 0.93362,-7.86369 0.95815,-8.65098 0.34023,-10.91316 -0.83288,-3.0492 -2.29824,-4.59157 -5.22842,-5.50326 -1.6126,-0.50177 -15.76293,-0.7116 -47.98676,-0.7116 -25.13487,0 -45.79309,-0.22119 -45.90715,-0.49153 -0.11411,-0.27034 0.74841,-7.15242 1.91659,-15.29348 1.16819,-8.14108 2.12399,-14.88963 2.12399,-14.99678 0,-0.10712 21.89681,-0.19525 48.65957,-0.19579 45.46715,-6.5e-4 48.75772,-0.0734 50.15541,-1.10631 2.07061,-1.53008 2.89325,-3.98394 3.50812,-10.46473 0.4769,-5.02642 0.4572,-5.67025 -0.20324,-6.63784 -0.6775,-0.99253 -4.32741,-1.08411 -49.52319,-1.24274 l -48.79176,-0.17124 -2.28842,1.91788 -2.28838,1.9179 -15.25849,-0.16623 c -9.80896,-0.10677 -15.25848,-0.39196 -15.25848,-0.79838 0,-0.34768 6.89433,-6.42716 15.32074,-13.50994 11.91163,-10.01223 16.28107,-13.35575 19.63649,-15.02588 l 4.31568,-2.1481 61.58213,0.0105 c 44.01393,0.008 62.2355,0.21392 63.87243,0.72311 7.13191,2.21862 11.14346,8.97513 11.13404,18.75277 -0.005,4.77678 -3.21931,31.15504 -4.10139,33.65366 -1.04314,2.9548 -3.45797,6.61498 -5.84403,8.85783 -1.17428,1.10381 -2.13507,2.27121 -2.13507,2.59422 0,0.32301 0.45866,1.92909 1.01924,3.5691 2.69124,7.87316 3.234,15.5878 1.78878,25.42407 -0.38315,2.60771 -1.56924,10.95639 -2.63575,18.5526 -1.0665,7.59619 -2.25274,14.99267 -2.63605,16.43657 -0.9337,3.51725 -4.08738,8.90596 -6.34768,10.8463 -4.22667,3.62836 -1.27117,3.46417 -61.53453,3.41867 l -55.45684,-0.0417 -7.55246,-2.09137 z m 122.7198,-1.89966 c 2.85796,-2.1212 5.59865,-6.27192 6.86037,-10.38989 1.16034,-3.78718 6.36455,-41.01355 6.36455,-45.52662 0,-3.91948 -1.27252,-10.17989 -3.20362,-15.76093 -0.64358,-1.85996 -1.1085,-3.47015 -1.03322,-3.57815 0.0751,-0.10803 1.13469,-1.20038 2.35418,-2.42748 2.88549,-2.90349 6.06576,-7.81412 6.61231,-10.21003 0.85897,-3.76539 3.47019,-27.13502 3.47019,-31.05718 0,-9.73009 -3.50929,-15.41181 -10.89972,-17.64725 -2.70574,-0.81839 -11.28365,-0.92122 -63.762,-0.76421 l -60.63566,0.18141 -3.66834,1.89406 c -2.38739,1.23265 -8.80328,6.19565 -18.37357,14.21272 l -14.7052,12.31865 13.30273,0.16705 13.30272,0.16705 2.57702,-1.90553 2.57697,-1.90552 49.18323,0 c 30.54214,0 49.59832,0.23109 50.27825,0.60982 0.60223,0.33538 1.20893,1.27494 1.3482,2.08788 0.31975,1.8661 -0.82266,12.43959 -1.59269,14.74094 -0.76235,2.27844 -2.40939,4.00547 -4.49605,4.71439 -0.96076,0.3264 -22.25697,0.58162 -49.24292,0.59019 l -47.55007,0.0153 -0.50115,3.63503 c -0.27566,1.99925 -1.13759,8.10705 -1.91544,13.57286 l -1.41427,9.93792 46.4445,0.19477 c 50.90008,0.21351 48.70103,0.04 51.2774,4.04171 1.89602,2.94488 2.13071,5.52966 1.25384,13.81059 -1.0616,10.02557 -1.71446,12.96469 -3.41635,15.38105 -2.8619,4.06322 -0.7265,3.90799 -53.75939,3.90799 l -48.14662,0 -3.46536,-3.06981 -3.46537,-3.06982 -11.00505,-0.73391 c -6.05279,-0.40363 -12.21885,-0.72911 -13.70239,-0.72322 -2.55963,0.0104 -2.69731,0.0882 -2.69731,1.53235 0,1.34411 1.80042,2.99207 15.42865,14.12217 8.48578,6.93027 16.691,13.241 18.23386,14.02386 1.54286,0.78287 5.8154,2.2259 9.49456,3.20666 l 6.68933,1.78324 56.53576,-0.10198 56.53571,-0.10197 2.52743,-1.87585 z"
           style="fill:#000000" />
        <path
           style="fill:#000000"
           d="m 410.42682,668.40265 c -4.11253,-1.13882 -8.72705,-2.74912 -10.25455,-3.57846 -2.4178,-1.31274 -27.31903,-21.18294 -31.72494,-25.31525 -1.41536,-1.32746 -1.60227,-1.79607 -1.60227,-4.01704 0,-1.71214 0.21496,-2.63513 0.67383,-2.89305 0.3706,-0.20832 6.93401,0.0662 14.58534,0.60907 l 13.91149,0.98784 2.39872,2.14418 c 1.3193,1.17933 2.82351,2.4669 3.34268,2.86123 1.35071,1.02612 95.47426,1.02369 97.56942,-0.002 1.76338,-0.86372 3.74496,-3.40606 4.33043,-5.55589 0.23435,-0.8606 0.87437,-5.34054 1.42227,-9.95541 0.92432,-7.78538 0.9486,-8.56482 0.33685,-10.80447 -0.8246,-3.01882 -2.27536,-4.54584 -5.17637,-5.44843 -1.59653,-0.49679 -15.60591,-0.70453 -47.5088,-0.70453 -24.88452,0 -45.33699,-0.21899 -45.44991,-0.48663 -0.11297,-0.26765 0.74096,-7.08118 1.8975,-15.14116 1.15655,-8.05999 2.10283,-14.74133 2.10283,-14.84741 0,-0.10605 21.67872,-0.1933 48.17493,-0.19384 45.01429,-6.5e-4 48.27207,-0.0728 49.65586,-1.09527 2.04998,-1.51486 2.86442,-3.94428 3.47316,-10.36052 0.47215,-4.97636 0.45265,-5.61377 -0.2012,-6.57173 -0.67076,-0.98264 -4.28431,-1.07331 -49.02993,-1.23036 l -48.30579,-0.16954 -2.26563,1.89878 -2.26559,1.8988 -15.10652,-0.16458 c -9.71126,-0.10572 -15.1065,-0.38806 -15.1065,-0.79042 0,-0.34422 6.82566,-6.36315 15.16815,-13.37538 11.79298,-9.91251 16.1189,-13.22272 19.4409,-14.87623 l 4.27269,-2.1267 60.96877,0.0105 c 43.57555,0.008 61.61563,0.2118 63.23626,0.71591 7.06087,2.19653 11.03247,8.88574 11.02314,18.56599 -0.005,4.72921 -3.18725,30.84474 -4.06054,33.31847 -1.03275,2.92537 -3.42353,6.54909 -5.78583,8.76961 -1.16258,1.09281 -2.11379,2.24859 -2.11379,2.56838 0,0.31979 0.45408,1.90986 1.00909,3.53355 2.66442,7.79474 3.20178,15.43255 1.77095,25.17084 -0.37932,2.58175 -1.5536,10.84727 -2.6095,18.36782 -1.05587,7.52054 -2.23029,14.84334 -2.6098,16.27286 -0.92439,3.48222 -4.04665,8.81725 -6.28444,10.73828 -4.18458,3.59221 -1.25851,3.42965 -60.92164,3.38462 l -54.90449,-0.0412 -7.47723,-2.07053 z m 121.49749,-1.88074 c 2.8295,-2.10006 5.5429,-6.20945 6.79205,-10.28641 1.14876,-3.74945 6.30117,-40.60505 6.30117,-45.07316 0,-3.88047 -1.25986,-10.07849 -3.17173,-15.60395 -0.63716,-1.84144 -1.09746,-3.43559 -1.02293,-3.54252 0.0745,-0.10695 1.12339,-1.18842 2.33073,-2.40329 2.85676,-2.87458 6.00535,-7.7363 6.54646,-10.10835 0.85041,-3.72788 3.43563,-26.86474 3.43563,-30.74784 0,-9.63318 -3.47435,-15.25831 -10.79116,-17.47149 -2.67879,-0.81024 -11.17127,-0.91204 -63.12693,-0.75658 l -60.03173,0.17959 -3.6318,1.87519 c -2.36361,1.22038 -8.7156,6.13394 -18.19056,14.07116 l -14.55874,12.19596 13.17024,0.16538 13.17022,0.16539 2.55135,-1.88655 2.55131,-1.88653 48.69336,0 c 30.23794,0 49.10431,0.22878 49.77745,0.60374 0.59625,0.33204 1.19691,1.26223 1.33479,2.06708 0.31656,1.84753 -0.81446,12.31569 -1.57683,14.59412 -0.75475,2.25574 -2.38539,3.96557 -4.45126,4.66744 -0.9512,0.32315 -22.03529,0.57582 -48.75246,0.5843 l -47.07648,0.0153 -0.49615,3.59883 c -0.27291,1.97933 -1.12626,8.02629 -1.89637,13.43766 l -1.40018,9.83896 45.98191,0.19282 c 50.39311,0.21138 48.21597,0.0395 50.76669,4.00145 1.87712,2.91554 2.10948,5.47458 1.24134,13.67304 -1.05104,9.92571 -1.69738,12.83556 -3.38232,15.22785 -2.83339,4.02273 -0.71927,3.86906 -53.22395,3.86906 l -47.66707,0 -3.43083,-3.03923 -3.43087,-3.03925 -10.89544,-0.72659 c -5.9925,-0.39961 -12.09715,-0.72184 -13.56591,-0.71601 -2.53414,0.0104 -2.67044,0.0872 -2.67044,1.51707 0,1.33075 1.78248,2.96228 15.27498,13.98151 8.40126,6.86126 16.52475,13.10913 18.05224,13.88419 1.5275,0.77509 5.75747,2.20373 9.39999,3.17473 l 6.62271,1.76547 55.97266,-0.10096 55.97261,-0.10096 2.50225,-1.85716 z"
           id="path4229"
           inkscape:connector-curvature="0"
           sodipodi:nodetypes="cssssscsssssscscssssssscccsssscssssssssssssccccssssssssscsscccccsssssscsscssssscccssssssccccc" />
        <path
           sodipodi:nodetypes="cssssscsssssscscssssssscccsssscssssssssssssccccssssssssscsscccccsssssscsscssssscccssssssccccc"
           inkscape:connector-curvature="0"
           id="path4231"
           d="m 410.82723,667.85558 c -4.07972,-1.12973 -8.65744,-2.72719 -10.17276,-3.54991 -2.3985,-1.30227 -27.10113,-21.01398 -31.47189,-25.11333 -1.40407,-1.31687 -1.58949,-1.78175 -1.58949,-3.98501 0,-1.69848 0.21324,-2.61411 0.66846,-2.86998 0.36764,-0.20664 6.87869,0.0658 14.469,0.60422 l 13.80053,0.97996 2.37959,2.12708 c 1.30877,1.16992 2.80099,2.44722 3.31601,2.83841 1.33993,1.01794 94.71276,1.01552 96.79122,-0.002 1.7493,-0.85682 3.71509,-3.37889 4.29589,-5.51157 0.23247,-0.85373 0.86739,-5.29795 1.41092,-9.87601 0.91694,-7.72328 0.94104,-8.49651 0.33416,-10.71829 -0.81802,-2.99474 -2.2572,-4.50958 -5.13508,-5.40497 -1.5838,-0.49283 -15.48144,-0.69891 -47.12987,-0.69891 -24.68604,0 -44.97538,-0.21724 -45.0874,-0.48275 -0.11207,-0.26551 0.73505,-7.0247 1.88237,-15.0204 1.14733,-7.9957 2.08606,-14.62374 2.08606,-14.72898 0,-0.1052 21.50581,-0.19177 47.79068,-0.19229 44.65525,-6.5e-4 47.88705,-0.0724 49.2598,-1.08653 2.03363,-1.50278 2.84158,-3.91284 3.44546,-10.27788 0.46837,-4.93668 0.44903,-5.56901 -0.1996,-6.51933 -0.66541,-0.9748 -4.25013,-1.06475 -48.63887,-1.22054 l -47.92049,-0.16819 -2.24757,1.88363 -2.24753,1.88366 -14.986,-0.16327 c -9.63382,-0.10487 -14.98602,-0.38497 -14.98602,-0.78412 0,-0.34147 6.77122,-6.3124 15.04715,-13.26869 11.69894,-9.83345 15.99035,-13.11726 19.28586,-14.75758 l 4.23861,-2.10973 60.48248,0.0105 c 43.22798,0.008 61.12418,0.21011 62.73189,0.7102 7.00454,2.179 10.94447,8.81487 10.93521,18.41791 -0.005,4.69149 -3.16182,30.59872 -4.02815,33.05272 -1.02451,2.90204 -3.39623,6.49685 -5.73969,8.69966 -1.1533,1.0841 -2.09692,2.23066 -2.09692,2.54789 0,0.31724 0.45045,1.89464 1.00104,3.50537 2.64317,7.73257 3.17624,15.30946 1.75682,24.97008 -0.37629,2.56116 -1.54121,10.76074 -2.58868,18.22131 -1.04745,7.46056 -2.2125,14.72494 -2.58899,16.14307 -0.91701,3.45445 -4.01437,8.74692 -6.23432,10.65264 -4.1512,3.56355 -1.24846,3.40229 -60.43572,3.35762 l -54.46657,-0.0408 -7.4176,-2.05402 z m 120.52843,-1.86574 c 2.80693,-2.08331 5.49868,-6.15991 6.73788,-10.20436 1.1396,-3.71953 6.2509,-40.28118 6.2509,-44.71366 0,-3.84953 -1.2498,-9.99809 -3.14642,-15.47949 -0.63208,-1.82675 -1.08872,-3.40819 -1.01479,-3.51426 0.0741,-0.10609 1.11445,-1.17894 2.31215,-2.38413 2.83398,-2.85164 5.95746,-7.67459 6.49426,-10.02771 0.84363,-3.69815 3.40823,-26.65048 3.40823,-30.5026 0,-9.55634 -3.44665,-15.13661 -10.7051,-17.33214 -2.65743,-0.80377 -11.08217,-0.90476 -62.62343,-0.75055 l -59.55291,0.17817 -3.60284,1.86023 c -2.34475,1.21064 -8.64608,6.08501 -18.04547,13.95893 l -14.44261,12.09868 13.06518,0.16406 13.06518,0.16407 2.531,-1.8715 2.53096,-1.87148 48.30499,0 c 29.99675,0 48.71264,0.22696 49.38042,0.59893 0.59149,0.32938 1.18736,1.25215 1.32414,2.05058 0.31403,1.83281 -0.80797,12.21746 -1.56425,14.47772 -0.74873,2.23774 -2.36637,3.93394 -4.41575,4.63022 -0.94362,0.32056 -21.85955,0.57122 -48.36362,0.57963 l -46.70099,0.0153 -0.4922,3.57012 c -0.27073,1.96355 -1.11728,7.96229 -1.88124,13.3305 l -1.38902,9.76048 45.61516,0.19126 c 49.99117,0.2097 47.8314,0.0391 50.36177,3.96955 1.86216,2.89228 2.09266,5.43092 1.23144,13.56398 -1.04266,9.84653 -1.68384,12.73318 -3.35533,15.10639 -2.8108,3.99065 -0.71355,3.8382 -52.79945,3.8382 l -47.28687,0 -3.40346,-3.01499 -3.40351,-3.015 -10.80854,-0.7208 c -5.9447,-0.39642 -12.00066,-0.71608 -13.4577,-0.7103 -2.51394,0.0104 -2.64913,0.0864 -2.64913,1.50497 0,1.32014 1.76825,2.93865 15.15314,13.86998 8.33424,6.80655 16.39294,13.00459 17.90824,13.77347 1.51534,0.7689 5.71156,2.18615 9.32501,3.1494 l 6.5699,1.7514 55.52621,-0.10016 55.52617,-0.10016 2.4823,-1.84235 z"
           style="fill:#000000" />
        <path
           style="fill:#000000"
           d="m 411.22446,667.31288 c -4.04719,-1.12072 -8.58839,-2.70545 -10.09163,-3.52159 -2.37936,-1.29189 -26.88497,-20.84637 -31.22087,-24.91303 -1.39287,-1.30637 -1.57681,-1.76753 -1.57681,-3.95322 0,-1.68494 0.21154,-2.59328 0.66314,-2.84711 0.3647,-0.20497 6.82382,0.0654 14.3536,0.59942 l 13.69044,0.97214 2.36061,2.11012 c 1.29834,1.16058 2.77865,2.4277 3.28957,2.81576 1.32924,1.00983 93.95733,1.00741 96.0192,-0.002 1.73536,-0.84998 3.68546,-3.35194 4.26162,-5.46761 0.23063,-0.84692 0.86048,-5.25569 1.39968,-9.79724 0.90963,-7.66168 0.93354,-8.42873 0.33149,-10.6328 -0.81149,-2.97085 -2.2392,-4.47361 -5.09412,-5.36186 -1.57117,-0.4889 -15.35797,-0.69333 -46.75396,-0.69333 -24.48916,0 -44.61666,-0.21551 -44.72779,-0.47891 -0.11116,-0.26339 0.7292,-6.96866 1.86736,-14.90059 1.13819,-7.93192 2.06942,-14.5071 2.06942,-14.6115 0,-0.10436 21.33429,-0.19024 47.4095,-0.19076 44.29908,-6.4e-4 47.5051,-0.0719 48.8669,-1.07787 2.01741,-1.49078 2.81893,-3.88162 3.41798,-10.19588 0.46464,-4.89732 0.44545,-5.52461 -0.198,-6.46735 -0.66011,-0.96702 -4.21623,-1.05627 -48.25092,-1.21081 l -47.53829,-0.16684 -2.22964,1.8686 -2.22959,1.86865 -14.86648,-0.16198 c -9.55698,-0.10403 -14.86649,-0.38189 -14.86649,-0.77787 0,-0.33875 6.71721,-6.26204 14.92714,-13.16285 11.60562,-9.75502 15.8628,-13.01264 19.13202,-14.63988 l 4.20481,-2.09291 60.00007,0.0105 c 42.8832,0.008 60.63665,0.20844 62.23154,0.70454 6.94867,2.16163 10.85717,8.74457 10.84799,18.27102 -0.005,4.65406 -3.1366,30.35466 -3.99603,32.78909 -1.01633,2.8789 -3.36913,6.44503 -5.6939,8.63027 -1.1441,1.07545 -2.08019,2.21286 -2.08019,2.52757 0,0.31471 0.44685,1.87953 0.99304,3.47741 2.6221,7.67089 3.1509,15.18735 1.74282,24.77092 -0.3733,2.54072 -1.52893,10.67489 -2.56804,18.07596 -1.03911,7.40106 -2.19485,14.6075 -2.56833,16.01433 -0.90971,3.42689 -3.98237,8.67714 -6.18462,10.56767 -4.11807,3.53513 -1.23848,3.37516 -59.95367,3.33085 l -54.03214,-0.0404 -7.35843,-2.03764 z m 119.56708,-1.85086 c 2.78454,-2.06669 5.45483,-6.11077 6.68414,-10.12297 1.13051,-3.68986 6.20105,-39.95989 6.20105,-44.35703 0,-3.81883 -1.23983,-9.91833 -3.12132,-15.35602 -0.62704,-1.81217 -1.08004,-3.381 -1.0067,-3.48623 0.0735,-0.10525 1.10556,-1.16954 2.29371,-2.36511 2.81137,-2.8289 5.90994,-7.61337 6.44246,-9.94772 0.8369,-3.66866 3.38104,-26.43792 3.38104,-30.25932 0,-9.48013 -3.41916,-15.01588 -10.61972,-17.1939 -2.63622,-0.79736 -10.99376,-0.89754 -62.12394,-0.74456 l -59.07791,0.17675 -3.57411,1.84539 c -2.32604,1.20099 -8.57711,6.03648 -17.90154,13.84759 l -14.32741,12.00218 12.96098,0.16275 12.96097,0.16278 2.51081,-1.85659 2.51077,-1.85655 47.9197,0 c 29.75751,0 48.32412,0.22516 48.98657,0.59416 0.58678,0.32675 1.17789,1.24216 1.31358,2.03422 0.31152,1.81819 -0.80152,12.12001 -1.55178,14.36224 -0.74275,2.2199 -2.34749,3.90257 -4.38053,4.59329 -0.93609,0.31801 -21.68521,0.56667 -47.97786,0.57501 l -46.32851,0.0153 -0.48827,3.54164 c -0.26858,1.94789 -1.10837,7.89877 -1.86623,13.22418 l -1.37795,9.68264 45.25133,0.18973 c 49.59245,0.20803 47.4499,0.0387 49.96008,3.93788 1.84731,2.86922 2.07597,5.3876 1.22162,13.4558 -1.03434,9.76797 -1.67041,12.63161 -3.32856,14.98591 -2.78839,3.9588 -0.70787,3.80758 -52.37832,3.80758 l -46.90971,0 -3.37631,-2.99095 -3.37637,-2.99096 -10.72233,-0.71504 c -5.89728,-0.39326 -11.90493,-0.71037 -13.35036,-0.70464 -2.49389,0.0104 -2.628,0.0856 -2.628,1.49297 0,1.30961 1.75414,2.91521 15.03228,13.75935 8.26776,6.75226 16.2622,12.90086 17.7654,13.66361 1.50326,0.76277 5.666,2.16872 9.25064,3.12429 l 6.5175,1.73743 55.08333,-0.0994 55.08329,-0.0994 2.46249,-1.82766 z"
           id="path4233"
           inkscape:connector-curvature="0"
           sodipodi:nodetypes="cssssscsssssscscssssssscccsssscssssssssssssccccssssssssscsscccccsssssscsscssssscccssssssccccc" />
        <path
           sodipodi:nodetypes="cssssscsssssscscssssssscccsssscssssssssssssccccssssssssscsscccccsssssscsscssssscccssssssccccc"
           inkscape:connector-curvature="0"
           id="path4235"
           d="m 411.61852,666.7745 c -4.01492,-1.11178 -8.5199,-2.68387 -10.01114,-3.49349 -2.36039,-1.28159 -26.67054,-20.6801 -30.97185,-24.71433 -1.38177,-1.29594 -1.56424,-1.75342 -1.56424,-3.92168 0,-1.6715 0.20986,-2.57259 0.65786,-2.82441 0.36178,-0.20333 6.76939,0.065 14.23912,0.59465 l 13.58123,0.96438 2.34178,2.09329 c 1.288,1.15132 2.7565,2.40833 3.26333,2.7933 1.31865,1.00178 93.20793,0.99937 95.25336,-0.002 1.7215,-0.84321 3.65605,-3.3252 4.22762,-5.424 0.22879,-0.84017 0.85362,-5.21378 1.38852,-9.7191 0.90237,-7.60058 0.92609,-8.3615 0.32885,-10.54799 -0.80502,-2.94715 -2.22134,-4.43794 -5.05349,-5.3191 -1.55864,-0.485 -15.23548,-0.6878 -46.38105,-0.6878 -24.29383,0 -44.2608,-0.21378 -44.37105,-0.47508 -0.11028,-0.2613 0.72339,-6.91308 1.85247,-14.78175 1.12912,-7.86866 2.05292,-14.39139 2.05292,-14.49496 0,-0.10352 21.16412,-0.18872 47.03136,-0.18924 43.94575,-6.3e-4 47.12619,-0.0715 48.47715,-1.06927 2.00131,-1.47889 2.79643,-3.85066 3.3907,-10.11456 0.46094,-4.85825 0.4419,-5.48053 -0.19641,-6.41577 -0.65484,-0.9593 -4.18261,-1.04783 -47.86607,-1.20114 l -47.15913,-0.16551 -2.21186,1.85369 -2.2118,1.85374 -14.7479,-0.16068 c -9.48076,-0.1032 -14.74792,-0.37885 -14.74792,-0.77166 0,-0.33606 6.66363,-6.2121 14.80808,-13.05786 11.51304,-9.67722 15.73628,-12.90886 18.97942,-14.52312 l 4.17127,-2.07621 59.52151,0.0105 c 42.54116,0.008 60.15302,0.20678 61.73518,0.69892 6.89325,2.14438 10.77057,8.67484 10.76147,18.12529 -0.005,4.61693 -3.11159,30.11254 -3.96416,32.52755 -1.00822,2.85596 -3.34226,6.39363 -5.64849,8.56144 -1.13497,1.06688 -2.06359,2.19521 -2.06359,2.50742 0,0.31219 0.44328,1.86453 0.98512,3.44967 2.60118,7.60971 3.12576,15.06622 1.72892,24.57334 -0.37032,2.52046 -1.51674,10.58975 -2.54756,17.9318 -1.03083,7.34202 -2.17734,14.49099 -2.54785,15.88659 -0.90245,3.39956 -3.9506,8.60793 -6.13529,10.48339 -4.08522,3.50693 -1.2286,3.34823 -59.47548,3.30427 l -53.60117,-0.04 -7.29974,-2.02139 z m 118.61342,-1.83609 c 2.76232,-2.0502 5.41131,-6.06203 6.63082,-10.04223 1.12149,-3.66043 6.15159,-39.64117 6.15159,-44.00324 0,-3.78837 -1.22994,-9.83921 -3.09642,-15.23353 -0.62205,-1.79772 -1.07144,-3.35403 -0.99868,-3.45842 0.073,-0.10441 1.09674,-1.16022 2.27541,-2.34625 2.78895,-2.80634 5.8628,-7.55264 6.39108,-9.86838 0.83023,-3.6394 3.35407,-26.22706 3.35407,-30.01798 0,-9.40451 -3.39188,-14.89611 -10.53501,-17.05676 -2.6152,-0.79099 -10.90608,-0.89037 -61.62845,-0.73861 l -58.6067,0.17533 -3.5456,1.83068 c -2.30749,1.1914 -8.5087,5.98832 -17.75876,13.73713 l -14.21313,11.90646 12.8576,0.16145 12.8576,0.1615 2.49078,-1.8418 2.49074,-1.84174 47.5375,0 c 29.52016,0 47.93868,0.22336 48.59585,0.58942 0.58209,0.32415 1.16849,1.23225 1.3031,2.01799 0.30904,1.80369 -0.79513,12.02334 -1.53941,14.24769 -0.73682,2.2022 -2.32876,3.87144 -4.34559,4.55666 -0.92862,0.31547 -21.51226,0.56214 -47.59519,0.57042 l -45.95897,0.0153 -0.48439,3.51339 c -0.26644,1.93235 -1.09953,7.83576 -1.85133,13.11869 l -1.36697,9.60544 44.8904,0.18821 c 49.19689,0.20635 47.07143,0.0383 49.56159,3.90646 1.83258,2.84634 2.05942,5.34463 1.2119,13.34848 -1.02611,9.69005 -1.6571,12.53087 -3.30203,14.86639 -2.76614,3.92722 -0.70222,3.7772 -51.96055,3.7772 l -46.53555,0 -3.34939,-2.9671 -3.34944,-2.96709 -10.6368,-0.70935 c -5.85025,-0.39012 -11.80998,-0.7047 -13.24388,-0.69901 -2.474,0.0104 -2.60703,0.0848 -2.60703,1.48105 0,1.29917 1.74014,2.89197 14.91237,13.64961 8.20181,6.69841 16.1325,12.79797 17.62371,13.55464 1.49126,0.75668 5.62081,2.15142 9.17685,3.09936 l 6.46551,1.72357 54.644,-0.0986 54.64393,-0.0986 2.44287,-1.81309 z"
           style="fill:#000000" />
        <path
           style="fill:#000000"
           d="m 412.00944,666.24042 c -3.9829,-1.10291 -8.45196,-2.66246 -9.9313,-3.46562 -2.34156,-1.27137 -26.45781,-20.51515 -30.72481,-24.5172 -1.37075,-1.2856 -1.55177,-1.73944 -1.55177,-3.8904 0,-1.65818 0.20819,-2.55209 0.65261,-2.80189 0.3589,-0.20171 6.7154,0.0646 14.12555,0.58991 l 13.47291,0.95668 2.3231,2.0766 c 1.27773,1.14213 2.73451,2.38912 3.2373,2.77102 1.30813,0.99379 92.4645,0.9914 94.49362,-0.002 1.70777,-0.83647 3.62689,-3.29868 4.1939,-5.38074 0.22697,-0.83346 0.8468,-5.17218 1.37744,-9.64157 0.89518,-7.53996 0.91871,-8.29481 0.32623,-10.46387 -0.7986,-2.92363 -2.20362,-4.40254 -5.01319,-5.27667 -1.5462,-0.48113 -15.11396,-0.68231 -46.01111,-0.68231 -24.10006,0 -43.90777,-0.21208 -44.01714,-0.47129 -0.1094,-0.25922 0.71762,-6.85794 1.8377,-14.66385 1.1201,-7.8059 2.03654,-14.27661 2.03654,-14.37935 0,-0.1027 20.99532,-0.18722 46.65624,-0.18773 43.59523,-6.3e-4 46.75031,-0.071 48.09049,-1.06074 1.98534,-1.4671 2.77411,-3.81995 3.36366,-10.03389 0.45726,-4.8195 0.43837,-5.43681 -0.19485,-6.3646 -0.64961,-0.95164 -4.14925,-1.03947 -47.48429,-1.19156 l -46.78298,-0.16419 -2.19422,1.8389 -2.19416,1.83897 -14.63027,-0.1594 c -9.40514,-0.10239 -14.63029,-0.37583 -14.63029,-0.76551 0,-0.33338 6.61048,-6.16256 14.68997,-12.9537 11.42122,-9.60005 15.61078,-12.80592 18.82804,-14.4073 l 4.13801,-2.05964 59.04676,0.0105 c 42.20184,0.008 59.67323,0.20514 61.24277,0.69335 6.83827,2.12727 10.68467,8.60565 10.67564,17.98071 -0.005,4.58012 -3.08677,29.87237 -3.93255,32.26812 -1.00017,2.83318 -3.31559,6.34263 -5.60343,8.49315 -1.12592,1.05837 -2.04713,2.1777 -2.04713,2.48742 0,0.3097 0.43974,1.84966 0.97726,3.42216 2.58043,7.54901 3.10083,14.94605 1.71514,24.37734 -0.36737,2.50036 -1.50465,10.50529 -2.52726,17.78877 -1.0226,7.28347 -2.15996,14.37542 -2.52751,15.75988 -0.89526,3.37245 -3.9191,8.53927 -6.08637,10.39978 -4.05262,3.47896 -1.21878,3.32152 -59.00109,3.27791 l -53.17365,-0.0396 -7.24151,-2.00526 z m 117.66735,-1.82145 c 2.74029,-2.03384 5.36814,-6.01367 6.57793,-9.96211 1.11255,-3.63125 6.10253,-39.32501 6.10253,-43.65228 0,-3.75815 -1.22014,-9.76073 -3.07173,-15.11203 -0.61708,-1.78338 -1.06289,-3.32727 -0.99071,-3.43082 0.0725,-0.1036 1.08799,-1.15098 2.25725,-2.32755 2.76672,-2.78396 5.81604,-7.49242 6.34012,-9.78966 0.82361,-3.61039 3.32731,-26.01788 3.32731,-29.77857 0,-9.3295 -3.36483,-14.77729 -10.45098,-16.92071 -2.59434,-0.78467 -10.81909,-0.88327 -61.1369,-0.73273 l -58.13924,0.17393 -3.51734,1.81609 c -2.28907,1.1819 -8.44082,5.94056 -17.61711,13.62756 l -14.09977,11.81148 12.75506,0.16017 12.75503,0.16022 2.47092,-1.82711 2.47088,-1.82705 47.15834,0 c 29.28471,0 47.55632,0.22158 48.20824,0.58471 0.57746,0.32158 1.15918,1.22243 1.29272,2.0019 0.30657,1.78931 -0.7888,11.92744 -1.52714,14.13405 -0.73094,2.18464 -2.31019,3.84056 -4.31093,4.52032 -0.9212,0.31295 -21.34068,0.55766 -47.21557,0.56586 l -45.59239,0.0153 -0.48054,3.48537 c -0.26431,1.91694 -1.09076,7.77326 -1.83656,13.01407 l -1.35607,9.5288 44.53236,0.18673 c 48.80449,0.20471 46.69599,0.0379 49.16629,3.8753 1.81796,2.82363 2.04298,5.302 1.20222,13.24202 -1.01791,9.61275 -1.64388,12.43092 -3.27569,14.7478 -2.74407,3.8959 -0.69661,3.74708 -51.54611,3.74708 l -46.16438,0 -3.32266,-2.94343 -3.32274,-2.94343 -10.55196,-0.70369 c -5.80359,-0.38702 -11.71578,-0.69908 -13.13824,-0.69344 -2.45426,0.0104 -2.58625,0.084 -2.58625,1.46922 0,1.28883 1.72627,2.86892 14.79345,13.54075 8.13639,6.64499 16.00381,12.69591 17.48313,13.44653 1.47937,0.75065 5.57598,2.13426 9.10366,3.07465 l 6.41394,1.70982 54.20816,-0.0978 54.20809,-0.0978 2.42338,-1.79863 z"
           id="path4237"
           inkscape:connector-curvature="0"
           sodipodi:nodetypes="cssssscsssssscscssssssscccsssscssssssssssssccccssssssssscsscccccsssssscsscssssscccssssssccccc" />
        <path
           sodipodi:nodetypes="cssssscsssssscscssssssscccsssscssssssssssssccccssssssssscsscccccsssssscsscssssscccssssssccccc"
           inkscape:connector-curvature="0"
           id="path4239"
           d="m 412.39724,665.7106 c -3.95112,-1.0941 -8.38455,-2.64122 -9.8521,-3.43798 -2.32287,-1.26123 -26.24677,-20.35151 -30.47974,-24.32165 -1.35982,-1.27535 -1.53939,-1.72556 -1.53939,-3.85937 0,-1.64496 0.20653,-2.53173 0.6474,-2.77953 0.35604,-0.20011 6.66184,0.0642 14.01289,0.58521 l 13.36543,0.94903 2.3046,2.06004 c 1.26753,1.13302 2.71269,2.37007 3.21146,2.74892 1.2977,0.98586 91.72701,0.9835 93.73995,-0.002 1.69414,-0.8298 3.59795,-3.27237 4.16044,-5.33781 0.22516,-0.82683 0.84003,-5.13094 1.36646,-9.56468 0.88803,-7.47983 0.91138,-8.22864 0.32362,-10.3804 -0.79222,-2.90033 -2.18604,-4.36744 -4.9732,-5.23459 -1.53387,-0.4773 -14.99342,-0.67688 -45.64412,-0.67688 -23.90784,0 -43.55757,-0.21038 -43.66607,-0.46752 -0.10852,-0.25715 0.7119,-6.80324 1.82305,-14.5469 1.11116,-7.74363 2.02029,-14.16272 2.02029,-14.26466 0,-0.10187 20.82786,-0.18572 46.28411,-0.18623 43.24751,-6.2e-4 46.37743,-0.0706 47.70692,-1.05228 1.96951,-1.4554 2.75198,-3.78947 3.33684,-9.95385 0.45361,-4.78106 0.43487,-5.39345 -0.19332,-6.31384 -0.64441,-0.94406 -4.11614,-1.03118 -47.10555,-1.18206 l -46.40982,-0.16288 -2.17672,1.82423 -2.17666,1.82431 -14.51358,-0.15813 c -9.33011,-0.10157 -14.5136,-0.37284 -14.5136,-0.75941 0,-0.33072 6.55776,-6.11339 14.5728,-12.85038 11.33013,-9.52348 15.48627,-12.70378 18.67787,-14.29239 l 4.10499,-2.04321 58.57582,0.0105 c 41.86524,0.008 59.19727,0.2035 60.75431,0.68781 6.78371,2.11032 10.59943,8.53702 10.59047,17.83731 -0.005,4.54357 -3.06214,29.6341 -3.90118,32.01075 -0.99219,2.81057 -3.28915,6.29203 -5.55873,8.4254 -1.11694,1.04993 -2.03081,2.16033 -2.03081,2.46758 0,0.30723 0.43624,1.83491 0.96948,3.39487 2.55984,7.48879 3.07608,14.82684 1.70145,24.1829 -0.36444,2.48042 -1.49265,10.4215 -2.50711,17.64689 -1.01444,7.22537 -2.14272,14.26076 -2.50735,15.63418 -0.88811,3.34555 -3.88783,8.47116 -6.03782,10.31682 -4.0203,3.45122 -1.20906,3.29504 -58.5305,3.25178 l -52.74953,-0.0392 -7.18375,-1.98925 z m 116.72883,-1.80692 c 2.71842,-2.01761 5.32532,-5.9657 6.52546,-9.88265 1.10367,-3.60228 6.05385,-39.01134 6.05385,-43.30411 0,-3.72818 -1.2104,-9.68287 -3.04722,-14.9915 -0.61216,-1.76915 -1.05443,-3.30072 -0.98281,-3.40345 0.072,-0.10278 1.07931,-1.1418 2.23923,-2.30899 2.74466,-2.76174 5.76967,-7.43264 6.28956,-9.71158 0.81705,-3.58159 3.30078,-25.81035 3.30078,-29.54105 0,-9.25508 -3.338,-14.65943 -10.36763,-16.78575 -2.57364,-0.77841 -10.73279,-0.87622 -60.64926,-0.72688 l -57.67554,0.17254 -3.48927,1.80159 c -2.27081,1.17248 -8.3735,5.89319 -17.4766,13.51888 l -13.98731,11.71728 12.65332,0.15889 12.6533,0.15893 2.45121,-1.81253 2.45118,-1.81248 46.7822,0 c 29.05113,0 47.17702,0.21982 47.82374,0.58004 0.57285,0.31902 1.14993,1.21269 1.2824,1.98595 0.30413,1.77503 -0.7825,11.8323 -1.51495,14.02131 -0.72512,2.16721 -2.29176,3.80992 -4.27655,4.48426 -0.91385,0.31046 -21.17047,0.55322 -46.83898,0.56135 l -45.22875,0.0153 -0.47671,3.45758 c -0.2622,1.90164 -1.08205,7.71124 -1.8219,12.91025 l -1.34526,9.4528 44.17717,0.18525 c 48.41524,0.20307 46.32354,0.0375 48.77414,3.84438 1.80346,2.80111 2.0267,5.25971 1.19263,13.1364 -1.00979,9.53609 -1.63076,12.33178 -3.24956,14.63018 -2.72218,3.86483 -0.69107,3.71719 -51.13498,3.71719 l -45.79617,0 -3.29616,-2.91996 -3.29624,-2.91994 -10.4678,-0.69808 c -5.7573,-0.38394 -11.62233,-0.69351 -13.03344,-0.68791 -2.43469,0.0104 -2.56563,0.0832 -2.56563,1.45749 0,1.27856 1.71251,2.84606 14.67547,13.43276 8.07149,6.59198 15.87615,12.59464 17.34367,13.33928 1.46758,0.74467 5.53151,2.11724 9.03106,3.05013 l 6.36277,1.69618 53.77581,-0.097 53.77571,-0.097 2.40406,-1.78428 z"
           style="fill:#000000" />
        <path
           style="fill:#000000"
           d="m 412.78194,665.18501 c -3.9196,-1.08537 -8.31767,-2.62015 -9.77352,-3.41057 -2.30435,-1.25115 -26.03742,-20.18917 -30.23663,-24.12765 -1.34897,-1.26517 -1.5271,-1.7118 -1.5271,-3.82858 0,-1.63183 0.20487,-2.51154 0.64222,-2.75737 0.3532,-0.19851 6.60872,0.0638 13.90112,0.58054 l 13.25884,0.94147 2.28622,2.04362 c 1.25741,1.12396 2.69105,2.35116 3.18584,2.72698 1.28736,0.978 90.99539,0.97566 92.99227,-0.002 1.68064,-0.82317 3.56926,-3.24626 4.12726,-5.29522 0.22336,-0.82025 0.83333,-5.09002 1.35556,-9.4884 0.88095,-7.42017 0.90412,-8.16302 0.32104,-10.2976 -0.7859,-2.8772 -2.16861,-4.33261 -4.93354,-5.19284 -1.52163,-0.4735 -14.87382,-0.67149 -45.28004,-0.67149 -23.71716,0 -43.21017,-0.2087 -43.3178,-0.46378 -0.10765,-0.25511 0.70622,-6.74898 1.80851,-14.43088 1.10229,-7.68187 2.00416,-14.04974 2.00416,-14.15088 0,-0.10107 20.66175,-0.18424 45.91496,-0.18475 42.90257,-6.2e-4 46.00752,-0.0702 47.32641,-1.04388 1.9538,-1.4438 2.73003,-3.75926 3.31023,-9.87447 0.44998,-4.74292 0.4314,-5.35043 -0.19179,-6.26348 -0.63927,-0.93652 -4.0833,-1.02296 -46.72982,-1.17262 l -46.03967,-0.16159 -2.15935,1.80968 -2.1593,1.80975 -14.39781,-0.15685 c -9.2557,-0.10077 -14.39784,-0.36987 -14.39784,-0.75336 0,-0.32809 6.50545,-6.06462 14.45656,-12.74789 11.23976,-9.44751 15.36275,-12.60245 18.52889,-14.17839 l 4.07225,-2.02691 58.10862,0.0105 c 41.53132,0.008 58.72511,0.20186 60.26973,0.68232 6.72961,2.09347 10.5149,8.46893 10.50599,17.69504 -0.005,4.50732 -3.0377,29.39773 -3.87005,31.75543 -0.98428,2.78815 -3.26291,6.24184 -5.51439,8.3582 -1.10804,1.04155 -2.01462,2.1431 -2.01462,2.44789 0,0.30478 0.43276,1.82028 0.96175,3.3678 2.53942,7.42906 3.05153,14.70858 1.68788,23.99002 -0.36153,2.46063 -1.48074,10.33837 -2.48711,17.50613 -1.00634,7.16774 -2.12564,14.14702 -2.48736,15.50949 -0.88102,3.31885 -3.85681,8.40358 -5.98965,10.23453 -3.98824,3.42368 -1.19942,3.26875 -58.06367,3.22584 l -52.32879,-0.0388 -7.12646,-1.9734 z m 115.7978,-1.79251 c 2.69673,-2.00152 5.28285,-5.91811 6.47342,-9.80382 1.09486,-3.57355 6.00556,-38.70019 6.00556,-42.95872 0,-3.69844 -1.20074,-9.60563 -3.02292,-14.87192 -0.60727,-1.75504 -1.04602,-3.2744 -0.97497,-3.37631 0.0715,-0.10196 1.0707,-1.13269 2.22137,-2.29058 2.72277,-2.73969 5.72365,-7.37335 6.23939,-9.63411 0.81054,-3.55303 3.27445,-25.60449 3.27445,-29.30543 0,-9.18126 -3.31136,-14.54251 -10.28494,-16.65187 -2.5531,-0.7722 -10.64718,-0.86923 -60.16551,-0.72108 l -57.21552,0.17116 -3.46144,1.78723 c -2.2527,1.16312 -8.30671,5.84618 -17.3372,13.41105 l -13.87575,11.62382 12.5524,0.15763 12.55237,0.15766 2.43166,-1.79808 2.43163,-1.79801 46.40907,0 c 28.81942,0 46.80073,0.21806 47.44229,0.5754 0.56828,0.31648 1.14076,1.20302 1.27218,1.97011 0.3017,1.76088 -0.77627,11.73792 -1.50288,13.90947 -0.71933,2.14993 -2.27347,3.77953 -4.24244,4.4485 -0.90656,0.30798 -21.00161,0.54881 -46.46538,0.55687 l -44.86801,0.0153 -0.47291,3.43002 c -0.26011,1.88645 -1.07341,7.64971 -1.80736,12.80727 l -1.33454,9.3774 43.82482,0.18377 c 48.02909,0.20143 45.95405,0.0371 48.38511,3.81372 1.78908,2.77876 2.01054,5.21775 1.18312,13.03162 -1.00173,9.46003 -1.61776,12.23341 -3.22364,14.51349 -2.70047,3.834 -0.68555,3.68753 -50.72713,3.68753 l -45.43089,0 -3.26987,-2.89667 -3.26995,-2.89664 -10.38431,-0.69252 c -5.71139,-0.38087 -11.52964,-0.68797 -12.92949,-0.68242 -2.41527,0.0104 -2.54517,0.0824 -2.54517,1.44587 0,1.26836 1.69886,2.82337 14.55842,13.32562 8.00712,6.5394 15.74952,12.49418 17.20534,13.23289 1.45588,0.73872 5.48739,2.10034 8.95902,3.0258 l 6.31203,1.68264 53.34689,-0.0962 53.3468,-0.0962 2.38488,-1.77004 z"
           id="path4241"
           inkscape:connector-curvature="0"
           sodipodi:nodetypes="cssssscsssssscscssssssscccsssscssssssssssssccccssssssssscsscccccsssssscsscssssscccssssssccccc" />
        <path
           sodipodi:nodetypes="cssssscsssssscscssssssscccsssscssssssssssssccccssssssssscsscccccsssssscsscssssscccssssssccccc"
           inkscape:connector-curvature="0"
           id="path4243"
           d="m 413.16357,664.66361 c -3.88834,-1.07671 -8.25132,-2.59925 -9.69557,-3.38336 -2.28597,-1.24117 -25.82973,-20.02814 -29.99546,-23.9352 -1.3382,-1.25509 -1.51491,-1.69816 -1.51491,-3.79806 0,-1.61881 0.20323,-2.4915 0.6371,-2.73537 0.35038,-0.19693 6.556,0.0634 13.79023,0.57591 l 13.1531,0.93396 2.26798,2.02732 c 1.24738,1.115 2.66958,2.3324 3.16043,2.70522 1.2771,0.97021 90.26961,0.96788 92.25056,-0.002 1.66724,-0.81662 3.54079,-3.22038 4.09434,-5.253 0.22158,-0.81371 0.82669,-5.04942 1.34475,-9.41272 0.87392,-7.36099 0.89691,-8.09791 0.31848,-10.21546 -0.77963,-2.85426 -2.15131,-4.29806 -4.89418,-5.15144 -1.50951,-0.46971 -14.75519,-0.66612 -44.91888,-0.66612 -23.528,0 -42.86554,-0.20704 -42.97231,-0.46009 -0.10679,-0.25307 0.70059,-6.69514 1.79408,-14.31577 1.09351,-7.6206 1.98818,-13.93767 1.98818,-14.03801 0,-0.10027 20.49695,-0.18276 45.54874,-0.18327 42.56038,-6.2e-4 45.64056,-0.0698 46.94893,-1.03556 1.93822,-1.4323 2.70825,-3.72929 3.28383,-9.79572 0.44638,-4.70509 0.42796,-5.30775 -0.19026,-6.21353 -0.63417,-0.92904 -4.05074,-1.01479 -46.35709,-1.16325 l -45.67246,-0.1603 -2.14214,1.79524 -2.14208,1.79531 -14.28297,-0.15561 c -9.18188,-0.1 -14.283,-0.36691 -14.283,-0.74734 0,-0.32547 6.45355,-6.01625 14.34125,-12.64621 11.15012,-9.37215 15.24023,-12.50193 18.38111,-14.06531 l 4.03977,-2.01073 57.64514,0.0105 c 41.20007,0.008 58.25672,0.20024 59.78902,0.67687 6.67594,2.07678 10.43103,8.40138 10.42219,17.5539 -0.005,4.47137 -3.01346,29.16326 -3.83919,31.50214 -0.97642,2.76592 -3.23687,6.19207 -5.47039,8.29154 -1.0992,1.03325 -1.99856,2.12601 -1.99856,2.42837 0,0.30235 0.42931,1.80576 0.95408,3.34094 2.51917,7.36981 3.02719,14.59127 1.67441,23.79867 -0.35865,2.44101 -1.46892,10.25592 -2.46726,17.3665 -0.99832,7.11058 -2.10869,14.0342 -2.46753,15.38579 -0.87398,3.29237 -3.82604,8.33654 -5.94187,10.1529 -3.95643,3.39638 -1.18985,3.24268 -57.60056,3.20011 l -51.91141,-0.0384 -7.06962,-1.95766 z m 114.87419,-1.77821 c 2.67523,-1.98556 5.24072,-5.87091 6.42179,-9.72562 1.08614,-3.54505 5.95765,-38.39153 5.95765,-42.61608 0,-3.66895 -1.19115,-9.52902 -2.99879,-14.75331 -0.60243,-1.74104 -1.03769,-3.24829 -0.9672,-3.34936 0.0711,-0.10116 1.06217,-1.12367 2.20365,-2.27232 2.70105,-2.71783 5.678,-7.31455 6.18963,-9.55728 0.80407,-3.52468 3.24833,-25.40027 3.24833,-29.07168 0,-9.10802 -3.28494,-14.42652 -10.2029,-16.51905 -2.53274,-0.76605 -10.56226,-0.8623 -59.68563,-0.71534 l -56.75917,0.1698 -3.43383,1.77297 c -2.23472,1.15386 -8.24045,5.79956 -17.19892,13.30409 l -13.76508,11.53111 12.45228,0.15636 12.45226,0.1564 2.41226,-1.78372 2.41223,-1.78367 46.03891,0 c 28.58956,0 46.42745,0.21631 47.0639,0.57081 0.56373,0.31395 1.13166,1.19342 1.26202,1.9544 0.2993,1.74682 -0.77006,11.64429 -1.49088,13.79852 -0.7136,2.13278 -2.25534,3.74938 -4.20859,4.41301 -0.89934,0.30553 -20.83411,0.54444 -46.09478,0.55244 l -44.51015,0.0153 -0.46913,3.40267 c -0.25804,1.87139 -1.06487,7.58869 -1.79295,12.7051 l -1.3239,9.3026 43.47527,0.18232 c 47.64601,0.19983 45.58751,0.0367 47.99919,3.7833 1.77481,2.75659 1.99451,5.17613 1.17369,12.92767 -0.99374,9.38458 -1.60486,12.13584 -3.19793,14.39774 -2.67894,3.8034 -0.68009,3.65812 -50.32253,3.65812 l -45.06853,0 -3.24379,-2.87357 -3.24387,-2.87354 -10.30147,-0.68699 c -5.66585,-0.37784 -11.43769,-0.68249 -12.82638,-0.67699 -2.39601,0.0104 -2.52487,0.0816 -2.52487,1.43434 0,1.25825 1.68531,2.80085 14.44231,13.21934 7.94325,6.48724 15.6239,12.39452 17.0681,13.12734 1.44428,0.73283 5.44362,2.08359 8.88756,3.00167 l 6.26169,1.66922 52.92139,-0.0954 52.9213,-0.0954 2.36586,-1.75591 z"
           style="fill:#000000" />
        <path
           style="fill:#000000"
           d="m 413.54215,664.14637 c -3.85732,-1.06812 -8.1855,-2.57851 -9.61823,-3.35638 -2.26773,-1.23127 -25.62371,-19.86839 -29.75621,-23.74428 -1.32753,-1.24509 -1.50283,-1.68462 -1.50283,-3.76778 0,-1.60589 0.20161,-2.47162 0.63203,-2.71354 0.34758,-0.19536 6.5037,0.063 13.68023,0.57131 l 13.04818,0.92653 2.2499,2.01113 c 1.23742,1.10611 2.64829,2.3138 3.13522,2.68365 1.26691,0.96247 89.54962,0.96016 91.51477,-0.002 1.65394,-0.8101 3.51253,-3.19468 4.06168,-5.21109 0.21981,-0.80722 0.82009,-5.00915 1.33402,-9.33763 0.86695,-7.30229 0.88976,-8.03333 0.31595,-10.13398 -0.77341,-2.83151 -2.13417,-4.26379 -4.85514,-5.11036 -1.49748,-0.46597 -14.63751,-0.66082 -44.5606,-0.66082 -23.34036,0 -42.52366,-0.20538 -42.62957,-0.45641 -0.10595,-0.25105 0.69499,-6.64174 1.77976,-14.20159 1.08481,-7.55981 1.97233,-13.82651 1.97233,-13.92605 0,-0.0995 20.33346,-0.18128 45.18544,-0.18179 42.22091,-6.2e-4 45.27653,-0.0694 46.57446,-1.02731 1.92277,-1.42089 2.68665,-3.69954 3.25764,-9.71759 0.44282,-4.66756 0.42455,-5.26542 -0.18875,-6.16397 -0.6291,-0.92164 -4.01843,-1.0067 -45.98733,-1.15397 l -45.30818,-0.15903 -2.12504,1.78093 -2.12502,1.78098 -14.16904,-0.15437 c -9.10865,-0.0992 -14.16908,-0.36396 -14.16908,-0.74137 0,-0.32287 6.40208,-5.96827 14.22686,-12.54535 11.0612,-9.29741 15.11867,-12.40221 18.23451,-13.95313 l 4.00755,-1.99468 57.18536,0.0105 c 40.87146,0.008 57.79206,0.19864 59.31214,0.67148 6.6227,2.06021 10.34783,8.33436 10.33906,17.41389 -0.005,4.4357 -2.98942,28.93065 -3.80858,31.25088 -0.96862,2.74385 -3.21104,6.14267 -5.42674,8.2254 -1.09044,1.02501 -1.98263,2.10905 -1.98263,2.409 0,0.29994 0.4259,1.79136 0.94647,3.31429 2.49908,7.31103 3.00305,14.47489 1.66106,23.60886 -0.35579,2.42153 -1.45721,10.17411 -2.44758,17.22798 -0.99036,7.05385 -2.09187,13.92226 -2.44785,15.26307 -0.86701,3.26611 -3.79552,8.27005 -5.89447,10.07192 -3.92489,3.36929 -1.18037,3.21682 -57.14114,3.17459 l -51.49737,-0.038 -7.01324,-1.94204 z m 113.95795,-1.76403 c 2.65389,-1.96972 5.19892,-5.82408 6.37058,-9.64804 1.07748,-3.51677 5.91012,-38.08533 5.91012,-42.27618 0,-3.63968 -1.18163,-9.45302 -2.97486,-14.63563 -0.59762,-1.72716 -1.02942,-3.22238 -0.95949,-3.32264 0.0707,-0.10036 1.0537,-1.11472 2.18607,-2.25421 2.67951,-2.69614 5.63272,-7.2562 6.14027,-9.48104 0.79765,-3.49658 3.22241,-25.19768 3.22241,-28.83981 0,-9.03536 -3.25873,-14.31146 -10.12151,-16.38729 -2.51255,-0.75994 -10.47802,-0.85542 -59.20958,-0.70964 l -56.30645,0.16846 -3.40643,1.75881 c -2.2169,1.14467 -8.17474,5.7533 -17.06175,13.19797 l -13.6553,11.43915 12.35297,0.15512 12.35294,0.15515 2.39302,-1.76951 2.39299,-1.76943 45.6717,0 c 28.36153,0 46.05714,0.21459 46.68851,0.56625 0.55923,0.31145 1.12264,1.1839 1.25196,1.93882 0.29691,1.7329 -0.76392,11.55141 -1.47899,13.68846 -0.70791,2.11577 -2.23735,3.71948 -4.17503,4.37781 -0.89216,0.3031 -20.66793,0.5401 -45.72711,0.54804 l -44.15514,0.0153 -0.4654,3.37554 c -0.25598,1.85645 -1.05637,7.52815 -1.77864,12.60376 l -1.31334,9.2284 43.12851,0.18088 c 47.26598,0.19823 45.2239,0.0363 47.61635,3.75311 1.76064,2.7346 1.9786,5.13484 1.16432,12.82456 -0.9858,9.30973 -1.59206,12.03904 -3.17241,14.2829 -2.65759,3.77306 -0.67468,3.62894 -49.92117,3.62894 l -44.70905,0 -3.21792,-2.85065 -3.21801,-2.85062 -10.2193,-0.68151 c -5.62065,-0.37482 -11.34646,-0.67703 -12.72408,-0.67157 -2.3769,0.0104 -2.50473,0.0808 -2.50473,1.42288 0,1.24821 1.67187,2.77852 14.32712,13.11391 7.8799,6.43549 15.49929,12.29566 16.93197,13.02263 1.43276,0.72699 5.4002,2.06698 8.81667,2.97773 l 6.21174,1.6559 52.49929,-0.0946 52.49921,-0.0946 2.34697,-1.74189 z"
           id="path4245"
           inkscape:connector-curvature="0"
           sodipodi:nodetypes="cssssscsssssscscssssssscccsssscssssssssssssccccssssssssscsscccccsssssscsscssssscccssssssccccc" />
        <path
           sodipodi:nodetypes="cssssscsssssscscssssssscccsssscssssssssssssccccssssssssscsscccccsssssscsscssssscccssssssccccc"
           inkscape:connector-curvature="0"
           id="path4247"
           d="m 413.91772,663.63326 c -3.82655,-1.0596 -8.12022,-2.55795 -9.54152,-3.32961 -2.24963,-1.22145 -25.41933,-19.70992 -29.51887,-23.55489 -1.31693,-1.23516 -1.49083,-1.67119 -1.49083,-3.73774 0,-1.59308 0.2,-2.4519 0.62699,-2.69189 0.34479,-0.1938 6.45181,0.0626 13.5711,0.56675 l 12.94411,0.91913 2.23196,1.9951 c 1.22755,1.09728 2.62716,2.29534 3.11022,2.66224 1.25679,0.95479 88.83536,0.95251 90.78483,-0.002 1.64075,-0.80364 3.48451,-3.1692 4.0293,-5.16953 0.21805,-0.80077 0.81354,-4.96919 1.32337,-9.26314 0.86002,-7.24406 0.88267,-7.96926 0.31343,-10.05317 -0.76724,-2.80891 -2.11716,-4.22977 -4.81642,-5.06959 -1.48553,-0.46225 -14.52076,-0.65555 -44.20517,-0.65555 -23.15421,0 -42.1845,-0.20374 -42.28955,-0.45277 -0.10511,-0.24905 0.68944,-6.58876 1.76555,-14.08832 1.07616,-7.49951 1.9566,-13.71622 1.9566,-13.81497 0,-0.0987 20.17127,-0.17983 44.82504,-0.18034 41.88415,-6.2e-4 44.9154,-0.069 46.20298,-1.01912 1.90744,-1.40955 2.66522,-3.67003 3.23166,-9.64008 0.43928,-4.63034 0.42116,-5.22342 -0.18725,-6.1148 -0.62408,-0.91429 -3.98638,-0.99867 -45.62053,-1.14478 l -44.94681,-0.15775 -2.10807,1.76673 -2.10808,1.76677 -14.05604,-0.15314 c -9.03599,-0.0984 -14.05606,-0.36105 -14.05606,-0.73545 0,-0.3203 6.35102,-5.92067 14.11339,-12.44529 10.97299,-9.22325 14.99808,-12.30331 18.08908,-13.84184 l 3.97557,-1.97877 56.72925,0.0105 c 40.54547,0.008 57.33111,0.19705 58.83907,0.66612 6.56987,2.04377 10.2653,8.26788 10.25658,17.27499 -0.005,4.40032 -2.96556,28.6999 -3.77819,31.00162 -0.96089,2.72196 -3.18543,6.09368 -5.38346,8.1598 -1.08175,1.01683 -1.96681,2.09222 -1.96681,2.38978 0,0.29755 0.42249,1.77707 0.9389,3.28786 2.47918,7.25271 2.97911,14.35944 1.64783,23.42055 -0.35296,2.40222 -1.44558,10.09297 -2.42806,17.09056 -0.98246,6.99759 -2.07518,13.81123 -2.42833,15.14135 -0.86009,3.24005 -3.76524,8.20409 -5.84745,9.99158 -3.89358,3.34241 -1.17096,3.19116 -56.68539,3.14927 l -51.08661,-0.0376 -6.95731,-1.92655 z m 113.04902,-1.74998 c 2.63272,-1.95399 5.15745,-5.77761 6.31976,-9.57108 1.06889,-3.48871 5.86299,-37.78155 5.86299,-41.93897 0,-3.61065 -1.17222,-9.37763 -2.95113,-14.5189 -0.59286,-1.71338 -1.0212,-3.19668 -0.95183,-3.29614 0.0703,-0.0996 1.04528,-1.10582 2.16861,-2.23623 2.65816,-2.67464 5.5878,-7.19832 6.0913,-9.40542 0.7913,-3.4687 3.19672,-24.99669 3.19672,-28.60977 0,-8.9633 -3.23274,-14.19732 -10.04079,-16.2566 -2.49251,-0.75388 -10.39444,-0.84861 -58.73732,-0.70398 l -55.85735,0.16713 -3.37925,1.74477 c -2.19923,1.13554 -8.10955,5.70741 -16.92567,13.0927 l -13.54638,11.34791 12.25443,0.15389 12.25442,0.15391 2.37393,-1.7554 2.37391,-1.75531 45.30741,0 c 28.13532,0 45.68979,0.21288 46.31613,0.56173 0.55477,0.30897 1.11368,1.17445 1.24196,1.92336 0.29455,1.71909 -0.75782,11.45928 -1.46718,13.57927 -0.70226,2.0989 -2.2195,3.68983 -4.14173,4.3429 -0.88505,0.30068 -20.50308,0.53579 -45.3624,0.54367 l -43.80295,0.0153 -0.46168,3.34861 c -0.25394,1.84166 -1.04795,7.46812 -1.76447,12.50324 l -1.30286,9.15479 42.78452,0.17943 c 46.88899,0.19666 44.8632,0.0359 47.23656,3.72318 1.7466,2.7128 1.96282,5.09388 1.15503,12.72228 -0.97793,9.23547 -1.57935,11.94301 -3.1471,14.16897 -2.63639,3.74297 -0.6693,3.6 -49.52299,3.6 l -44.35245,0 -3.19226,-2.82792 -3.19235,-2.82788 -10.13778,-0.67607 c -5.57583,-0.37184 -11.25596,-0.67163 -12.62259,-0.66623 -2.35795,0.0104 -2.48476,0.08 -2.48476,1.41154 0,1.23825 1.65853,2.75636 14.21284,13.00932 7.81705,6.38416 15.37567,12.19759 16.79692,12.91876 1.42133,0.72119 5.35715,2.05049 8.74635,2.95397 l 6.16221,1.6427 52.08055,-0.0938 52.08047,-0.0938 2.32825,-1.728 z"
           style="fill:#000000" />
      </g>
    </g>
  </g>
</svg>
